<?xml version="1.0" encoding="utf-8"?>
<!-- Generator: Adobe Illustrator 26.4.1, SVG Export Plug-In . SVG Version: 6.00 Build 0)  -->
<svg version="1.1" id="Layer_1" xmlns="http://www.w3.org/2000/svg" xmlns:xlink="http://www.w3.org/1999/xlink" x="0px" y="0px"
	 viewBox="0 0 1374 476.7" style="enable-background:new 0 0 1374 476.7;" xml:space="preserve">
<style type="text/css">
	.st0{fill-rule:evenodd;clip-rule:evenodd;fill:#FFFFFF;}
	.st1{fill:#FFFFFF;}
</style>
<g>
	<path class="st0" d="M587.3,30c-47.2,0-89,23.1-114.8,58.7c16.5,15.3,28.4,35.5,33.4,58.2c10.6-34.9,43-60.2,81.3-60.2
		c46.9,0,85,38.1,85,85s-38.1,85-85,85c-38.3,0-70.7-25.4-81.3-60.2c-5.1,22.7-17,42.9-33.4,58.2c25.7,35.5,67.5,58.6,114.8,58.6
		c78.2,0,141.7-63.4,141.7-141.7C729,93.4,665.6,30,587.3,30"/>
	<path class="st1" d="M395.3,58.3c29.9,0,57,11.6,77.3,30.4V20.3C449.4,8.4,423.1,1.6,395.3,1.6c-61.2,0-114.9,32.4-144.8,81
		c-11.2,18.2-19.1,38.8-22.8,60.7h6.1h45.4h6.1c1.9,9.2,2.8,18.6,2.8,28.3c0,9.7-1,19.2-2.8,28.3c-4.6,22.7-14.6,43.4-28.7,60.7
		c-1.1,1.4-2.3,2.7-3.4,4c30.4,46.3,82.7,76.9,142.2,76.9c27.8,0,54.1-6.8,77.3-18.6v-68.5c-20.2,18.9-47.4,30.4-77.3,30.4
		c-52.8,0-97.2-36.1-109.8-85h109.8v-56.7H285.5C298.1,94.4,342.5,58.3,395.3,58.3"/>
	<path class="st1" d="M285.2,143.3h-6.1h-45.4h-6.1H116.8V200h109.8c-11.7,33-43.1,56.7-80.1,56.7c-46.9,0-85-38.1-85-85
		s38.1-85,85-85c14.5,0,28.1,3.6,40.1,10v-61C173.8,32,160.3,30,146.4,30C68.2,30,4.7,93.4,4.7,171.6c0,78.2,63.4,141.7,141.7,141.7
		c42.6,0,80.8-18.8,106.7-48.6c1.2-1.3,2.3-2.7,3.4-4c14-17.3,24.1-38,28.7-60.7c1.9-9.1,2.8-18.6,2.8-28.3
		C288.1,161.9,287.1,152.5,285.2,143.3"/>
	<path class="st1" d="M757.1,298.2V298c0-22.1,16.9-40.9,40.8-40.9c13.8,0,22.2,3.8,30.4,10.7l-8.8,10.5c-6.1-5.2-12.1-8.5-22.1-8.5
		c-14.6,0-25.6,12.8-25.6,27.9v0.2c0,16.3,10.7,28.2,26.9,28.2c7.4,0,14.2-2.4,19.1-6v-14.8h-20.2v-12.1h33.7v33.2
		c-7.8,6.7-19,12.3-33,12.3C773.4,338.9,757.1,321.2,757.1,298.2"/>
	<path class="st1" d="M846.3,258.5h35.2c9.9,0,17.7,2.9,22.8,7.9c4.2,4.3,6.5,10.2,6.5,17.1v0.2c0,13-7.8,20.8-18.9,23.9l21.3,29.9
		H897L877.6,310h-17.4v27.6h-13.9V258.5z M880.5,297.6c9.9,0,16.3-5.2,16.3-13.2v-0.2c0-8.5-6.1-13.1-16.4-13.1h-20.2v26.5H880.5z"
		/>
	<path class="st1" d="M921.6,298.2V298c0-22.2,17.2-40.9,41.4-40.9c24.3,0,41.2,18.4,41.2,40.7v0.2c0,22.2-17.2,40.9-41.4,40.9
		C938.5,338.9,921.6,320.5,921.6,298.2 M989.7,298.2V298c0-15.4-11.2-28.1-26.9-28.1c-15.7,0-26.6,12.5-26.6,27.9v0.2
		c0,15.4,11.2,28.1,26.9,28.1C978.7,326.1,989.7,313.6,989.7,298.2"/>
	<path class="st1" d="M1017,304v-45.5h13.9v44.9c0,14.7,7.6,22.6,20,22.6c12.3,0,19.9-7.5,19.9-22v-45.5h13.9v44.8
		c0,23.6-13.3,35.5-34,35.5C1030,338.8,1017,326.9,1017,304"/>
	<path class="st1" d="M1100.8,258.5h31.2c18.4,0,30,10.5,30,26.4v0.2c0,17.7-14.2,27-31.6,27h-15.7v25.4h-13.9V258.5z M1130.8,299.6
		c10.5,0,17.1-5.9,17.1-14.1v-0.2c0-9.3-6.7-14.1-17.1-14.1h-16.1v28.5H1130.8z"/>
	<path class="st1" d="M1200.9,298.2V298c0-22.2,17.2-40.9,41.4-40.9c24.3,0,41.2,18.4,41.2,40.7v0.2c0,22.2-17.2,40.9-41.4,40.9
		C1217.9,338.9,1200.9,320.5,1200.9,298.2 M1269,298.2V298c0-15.4-11.2-28.1-26.9-28.1c-15.7,0-26.6,12.5-26.6,27.9v0.2
		c0,15.4,11.2,28.1,26.9,28.1C1258.1,326.1,1269,313.6,1269,298.2"/>
	<polygon class="st1" points="1297.5,258.5 1310.4,258.5 1352.8,313.1 1352.8,258.5 1366.4,258.5 1366.4,337.5 1354.8,337.5 
		1311.2,281.3 1311.2,337.5 1297.5,337.5 	"/>
	<polygon class="st1" points="23.5,394.6 82.1,394.6 82.1,407.1 37.4,407.1 37.4,427.6 77,427.6 77,440 37.4,440 37.4,461.3 
		82.6,461.3 82.6,473.7 23.5,473.7 	"/>
	<path class="st1" d="M127.1,394.1H140l34.8,79.6h-14.7l-8-19.1h-37.4l-8.1,19.1H92.3L127.1,394.1z M147,442.3l-13.7-31.6
		l-13.6,31.6H147z"/>
	<path class="st1" d="M188.3,394.6h35.2c9.9,0,17.7,2.9,22.8,7.9c4.2,4.3,6.6,10.2,6.6,17v0.2c0,13-7.8,20.8-18.9,23.9l21.3,29.9
		H239l-19.4-27.5h-17.4v27.5h-13.9V394.6z M222.5,433.8c9.9,0,16.3-5.2,16.3-13.2v-0.2c0-8.5-6.1-13.1-16.4-13.1h-20.2v26.5H222.5z"
		/>
	<polygon class="st1" points="289,407.5 263.9,407.5 263.9,394.6 328,394.6 328,407.5 303,407.5 303,473.7 289,473.7 	"/>
	<polygon class="st1" points="342.7,394.6 356.6,394.6 356.6,427.5 394.3,427.5 394.3,394.6 408.2,394.6 408.2,473.7 394.3,473.7 
		394.3,440.4 356.6,440.4 356.6,473.7 342.7,473.7 	"/>
	<path class="st1" d="M458.8,434.4v-0.2c0-22.2,17.2-40.9,41.4-40.9c24.3,0,41.2,18.4,41.2,40.7v0.2c0,22.2-17.2,40.9-41.4,40.9
		S458.8,456.6,458.8,434.4 M526.9,434.4v-0.2c0-15.4-11.2-28.1-26.9-28.1c-15.7,0-26.6,12.5-26.6,27.9v0.2
		c0,15.4,11.2,28.1,26.9,28.1C516,462.3,526.9,449.7,526.9,434.4"/>
	<path class="st1" d="M558.3,394.6h35.5c9,0,16.1,2.5,20.7,7c3.5,3.5,5.3,7.8,5.3,13.1v0.2c0,9.5-5.4,14.6-11.3,17.6
		c9.3,3.2,15.7,8.5,15.7,19.2v0.2c0,14.1-11.6,21.7-29.2,21.7h-36.6V394.6z M590.9,427.9c8.9,0,14.9-3.5,14.9-10.7V417
		c0-6.2-5-10.1-13.9-10.1h-20v21H590.9z M595,461.4c9.5,0,15.2-3.7,15.2-10.8v-0.2c0-6.7-5.3-10.6-16.3-10.6h-22v21.7H595z"/>
	<path class="st1" d="M634.5,462.2l8.4-9.9c7.6,6.6,15.1,10.3,25,10.3c8.6,0,14-4,14-9.9v-0.2c0-5.6-3.2-8.7-17.8-12.1
		c-16.8-4.1-26.3-9-26.3-23.6v-0.2c0-13.5,11.3-22.9,27-22.9c11.5,0,20.7,3.5,28.7,9.9l-7.4,10.5c-7.1-5.3-14.2-8.1-21.5-8.1
		c-8.1,0-12.9,4.2-12.9,9.4v0.2c0,6.1,3.6,8.8,18.7,12.4c16.7,4.1,25.4,10,25.4,23.1v0.2c0,14.8-11.6,23.6-28.2,23.6
		C655.3,474.8,643.9,470.6,634.5,462.2"/>
	<polygon class="st1" points="712,394.6 770.6,394.6 770.6,407.1 725.9,407.1 725.9,427.6 765.5,427.6 765.5,440 725.9,440 
		725.9,461.3 771.2,461.3 771.2,473.7 712,473.7 	"/>
	<path class="st1" d="M787.6,394.6h35.2c9.9,0,17.7,2.9,22.8,7.9c4.2,4.3,6.6,10.2,6.6,17v0.2c0,13-7.8,20.8-18.9,23.9l21.3,29.9
		h-16.4l-19.4-27.5h-17.4v27.5h-13.9V394.6z M821.8,433.8c9.9,0,16.3-5.2,16.3-13.2v-0.2c0-8.5-6.1-13.1-16.4-13.1h-20.2v26.5H821.8
		z"/>
	<polygon class="st1" points="860.2,394.6 875.6,394.6 899.4,455.4 923.1,394.6 938.1,394.6 905.2,474.2 893.1,474.2 	"/>
	<path class="st1" d="M968.3,394.1h12.9l34.8,79.6h-14.7l-8-19.1h-37.4l-8.1,19.1h-14.2L968.3,394.1z M988.2,442.3l-13.7-31.6
		L961,442.3H988.2z"/>
	<polygon class="st1" points="1038.8,407.5 1013.7,407.5 1013.7,394.6 1077.8,394.6 1077.8,407.5 1052.8,407.5 1052.8,473.7 
		1038.8,473.7 	"/>
	<rect x="1093.3" y="394.6" class="st1" width="13.9" height="79"/>
	<path class="st1" d="M1124.8,434.4v-0.2c0-22.2,17.2-40.9,41.4-40.9c24.3,0,41.2,18.4,41.2,40.7v0.2c0,22.2-17.2,40.9-41.4,40.9
		C1141.7,475,1124.8,456.6,1124.8,434.4 M1192.9,434.4v-0.2c0-15.4-11.2-28.1-26.9-28.1c-15.7,0-26.6,12.5-26.6,27.9v0.2
		c0,15.4,11.2,28.1,26.9,28.1C1181.9,462.3,1192.9,449.7,1192.9,434.4"/>
	<polygon class="st1" points="1224.2,394.6 1237.1,394.6 1279.4,449.3 1279.4,394.6 1293.1,394.6 1293.1,473.7 1281.5,473.7 
		1237.9,417.4 1237.9,473.7 1224.2,473.7 	"/>
	<path class="st1" d="M1308.1,462.2l8.4-9.9c7.6,6.6,15.1,10.3,25,10.3c8.6,0,14-4,14-9.9v-0.2c0-5.6-3.2-8.7-17.8-12.1
		c-16.8-4.1-26.3-9-26.3-23.6v-0.2c0-13.5,11.3-22.9,27-22.9c11.5,0,20.7,3.5,28.7,9.9l-7.4,10.5c-7.1-5.3-14.2-8.1-21.5-8.1
		c-8.1,0-12.9,4.2-12.9,9.4v0.2c0,6.1,3.6,8.8,18.7,12.4c16.7,4.1,25.4,10,25.4,23.1v0.2c0,14.8-11.6,23.6-28.2,23.6
		C1329,474.8,1317.6,470.6,1308.1,462.2"/>
</g>
</svg>
