<?xml version="1.0" encoding="utf-8"?>
<!-- Generator: Adobe Illustrator 28.3.0, SVG Export Plug-In . SVG Version: 6.00 Build 0)  -->
<svg version="1.1" id="Layer_1" xmlns="http://www.w3.org/2000/svg" xmlns:xlink="http://www.w3.org/1999/xlink" x="0px" y="0px"
	 viewBox="0 0 200 31" style="enable-background:new 0 0 200 31;" xml:space="preserve">
<style type="text/css">
	.st0{fill:#243754;}
</style>
<g>
	<g>
		<path class="st0" d="M18.7,2.1l11.7,26.7h-6.9l-2.6-6.1H9.4l-2.5,6.1H0L11.6,2.1H18.7z M11.3,18.4h7.9l-4-9.7L11.3,18.4z"/>
		<path class="st0" d="M59.3,15.5c0,7.5-5.3,13.7-14.9,13.7c-9.6,0-14.8-6.4-14.8-13.7c0-6.6,4.4-13.7,14.9-13.7
			C53.8,1.8,59.3,7.8,59.3,15.5z M36.7,15.5c0,4.6,3.2,7.8,7.9,7.8s8-2.9,8-7.9c0-4.2-2.8-7.8-7.9-7.8C39.7,7.6,36.7,10.9,36.7,15.5
			z"/>
		<path class="st0" d="M69.2,2.1v14.5c0,4.4,2.2,6.8,6.5,6.8c4.1,0,6.5-2.1,6.5-6.8V2h6.7v14.7C88.9,24.6,84,29,75.7,29
			c-8.6,0-13.3-4.6-13.3-12.2V2L69.2,2.1L69.2,2.1z"/>
		<path class="st0" d="M107.8,2.1l11.7,26.7h-6.9l-2.6-6.1H98.5L96,28.8h-6.9l11.6-26.7H107.8z M100.3,18.4h7.9l-4-9.7L100.3,18.4z"
			/>
		<path d="M117.3,2.1h2.1l9.4,22.7l0,0l9.3-22.7h2.1l-11.3,27.1h-0.4L117.3,2.1z"/>
		<path d="M156.5,2.1v1.8h-12v10.4h11.7v1.9h-11.7v10.7h12.4v1.8h-14.4V2L156.5,2.1L156.5,2.1z"/>
		<path d="M187,15.3c0,7.7-5.6,13.9-13.9,13.9c-8.2,0-13.7-6.3-13.7-13.5c0-7.9,5.6-13.9,13.7-13.9C181.7,1.8,187,8.1,187,15.3z
			 M161.5,15.5c0,6.7,5.1,11.7,11.5,11.7c7.9,0,11.9-6.1,11.9-11.7c0-6.3-4.5-11.7-11.6-11.7C166,3.7,161.5,9.2,161.5,15.5z"/>
		<path d="M195.3,0c2.5,0,4.7,2.1,4.7,4.7c0,2.5-2,4.7-4.7,4.7c-2.5,0-4.7-2-4.7-4.7C190.6,2.2,192.6,0,195.3,0z M195.3,8.7
			c2.3,0,4-1.9,4-4c0-2.2-1.8-4-4-4s-4,1.8-4,4C191.2,6.9,193.1,8.7,195.3,8.7z M193.1,2.1h2.5c1.1,0,1.8,0.6,1.8,1.4
			s-0.6,1.3-1.4,1.4c0.4,0.2,0.7,0.4,1,0.9l0.9,1.4h-1.6L195.7,6c-0.3-0.7-0.5-0.8-1-0.8h-0.3v2h-1.3V2.1z M195,4.4
			c0.5,0,0.9-0.2,0.9-0.7S195.5,3,195,3h-0.6v1.4L195,4.4L195,4.4z"/>
	</g>
</g>
<path class="st0" d="M44.9,17.3c0.8,2.9,3.6,10.4,7.5,13.4l6.4-0.7v-0.7c-3.4-1.3-5.6-4.2-6.4-6.8C50.6,21.9,47,20.1,44.9,17.3z"/>
</svg>
